<svg xmlns="http://www.w3.org/2000/svg" xmlns:xlink="http://www.w3.org/1999/xlink" width="300" zoomAndPan="magnify" viewBox="0 0 224.87999 149.999998" height="200" preserveAspectRatio="xMidYMid meet" version="1.0"><defs><g/><clipPath id="45c562566d"><path d="M 24 43.289062 L 76.792969 43.289062 L 76.792969 107 L 24 107 Z M 24 43.289062 " clip-rule="nonzero"/></clipPath><clipPath id="1d2cc43c5a"><path d="M 13.078125 56 L 66 56 L 66 104 L 13.078125 104 Z M 13.078125 56 " clip-rule="nonzero"/></clipPath></defs><g clip-path="url(#45c562566d)"><path fill="#00aeef" d="M 57.035156 58.707031 C 55.707031 57.707031 54.265625 56.875 52.722656 56.222656 C 52.335938 56.0625 51.949219 55.910156 51.554688 55.773438 L 44.789062 62.539062 L 33.902344 51.652344 C 37.214844 50.101562 40.902344 49.238281 44.789062 49.238281 C 48.679688 49.238281 52.367188 50.101562 55.675781 51.652344 C 57.535156 52.523438 59.277344 53.609375 60.863281 54.878906 C 62.320312 56.046875 63.648438 57.371094 64.824219 58.820312 C 66.101562 60.398438 67.195312 62.132812 68.074219 63.984375 C 69.664062 67.324219 70.550781 71.058594 70.550781 75 C 70.550781 89.203125 59 100.761719 44.792969 100.761719 C 43.910156 100.761719 43.023438 100.71875 42.179688 100.628906 L 42.179688 93.097656 L 36.210938 87.148438 L 36.210938 105.539062 C 38.1875 106.085938 40.144531 106.441406 42.164062 106.605469 C 43.03125 106.675781 43.90625 106.710938 44.785156 106.710938 C 49.066406 106.710938 53.222656 105.871094 57.132812 104.21875 C 60.910156 102.621094 64.300781 100.335938 67.210938 97.421875 C 70.125 94.511719 72.410156 91.121094 74.007812 87.34375 C 75.660156 83.433594 76.5 79.277344 76.5 75 C 76.5 70.71875 75.660156 66.566406 74.007812 62.65625 C 73.558594 61.59375 73.054688 60.5625 72.496094 59.5625 C 71.515625 57.796875 70.367188 56.136719 69.058594 54.585938 C 68.476562 53.894531 67.859375 53.222656 67.214844 52.578125 C 66.535156 51.898438 65.828125 51.253906 65.097656 50.644531 C 63.542969 49.34375 61.875 48.199219 60.105469 47.222656 C 59.144531 46.695312 58.152344 46.210938 57.132812 45.78125 C 53.222656 44.125 49.070312 43.289062 44.789062 43.289062 C 40.511719 43.289062 36.359375 44.125 32.445312 45.78125 C 31.425781 46.210938 30.4375 46.695312 29.476562 47.222656 C 27.707031 48.199219 26.039062 49.34375 24.480469 50.644531 L 44.789062 70.953125 Z M 57.035156 58.707031 " fill-opacity="1" fill-rule="nonzero"/></g><g clip-path="url(#1d2cc43c5a)"><path fill="#00aeef" d="M 15.574219 87.34375 C 17.171875 91.121094 19.457031 94.511719 22.367188 97.421875 C 23.015625 98.070312 23.683594 98.6875 24.378906 99.277344 C 26.210938 100.820312 28.175781 102.140625 30.324219 103.230469 L 30.324219 72.8125 L 44.785156 87.269531 L 59.074219 72.980469 C 59.167969 73.640625 59.210938 74.316406 59.210938 75 C 59.210938 81.808594 54.503906 87.53125 48.113281 89.039062 L 48.113281 95.105469 C 49.710938 94.847656 51.234375 94.402344 52.71875 93.773438 C 55.144531 92.746094 57.328125 91.277344 59.195312 89.410156 C 61.066406 87.539062 62.539062 85.359375 63.5625 82.933594 C 64.628906 80.417969 65.167969 77.75 65.167969 75 C 65.167969 72.621094 64.765625 70.300781 63.964844 68.09375 C 63.84375 67.75 63.710938 67.40625 63.566406 67.066406 C 62.894531 65.480469 62.035156 64.003906 61 62.648438 L 44.792969 78.855469 L 24.390625 58.449219 L 24.390625 90.707031 C 21.070312 86.359375 19.007812 80.90625 19.007812 75 L 19.007812 56.5 C 18.335938 57.484375 17.664062 58.503906 17.074219 59.5625 C 16.515625 60.558594 16.015625 61.59375 15.566406 62.65625 C 13.914062 66.566406 13.078125 70.71875 13.078125 75 C 13.078125 79.277344 13.917969 83.433594 15.574219 87.34375 Z M 15.574219 87.34375 " fill-opacity="1" fill-rule="nonzero"/></g><g fill="#00aeef" fill-opacity="1"><g transform="translate(81.62049, 71.008601)"><g><path d="M 12.625 -14.734375 L 12.78125 -0.03125 L 8.890625 -0.125 L 8.59375 -8.5 L 6.546875 -5.421875 L 4.609375 -8.390625 L 4.3125 -0.1875 L 0.375 -0.03125 L 0.578125 -14.859375 L 4.484375 -14.8125 L 6.546875 -11.46875 L 8.53125 -14.78125 Z M 12.625 -14.734375 "/></g></g></g><g fill="#00aeef" fill-opacity="1"><g transform="translate(94.774699, 71.008601)"><g><path d="M 9.140625 -3.359375 L 9.34375 -0.03125 L 0.375 -0.03125 L 0.375 -14.859375 L 9.046875 -14.578125 L 8.9375 -11.1875 L 4.171875 -11.25 L 4.171875 -9.390625 L 7.25 -9.203125 L 7.25 -5.984375 L 4.15625 -6.171875 L 4.125 -3.625 Z M 9.140625 -3.359375 "/></g></g></g><g fill="#00aeef" fill-opacity="1"><g transform="translate(104.482876, 71.008601)"><g><path d="M 9.484375 -14.078125 L 10.890625 -12.21875 L 10.578125 -1.890625 L 9.140625 -0.1875 L 0.375 0.015625 L 0.484375 -14.828125 Z M 4.28125 -11.234375 L 4.421875 -3 L 7 -3.578125 L 7.140625 -10.421875 Z M 4.28125 -11.234375 "/></g></g></g><g fill="#00aeef" fill-opacity="1"><g transform="translate(115.747329, 71.008601)"><g><path d="M 10.875 -13.140625 L 11.15625 -0.03125 L 7.296875 0.03125 L 7.1875 -4.578125 L 4.25 -4.390625 L 3.953125 -0.0625 L 0.375 0.015625 L 0.9375 -13.578125 L 1.671875 -14.453125 L 9.75 -14.8125 Z M 7.171875 -7.390625 L 7.078125 -11.078125 L 4.640625 -10.875 L 4.453125 -7.578125 Z M 7.171875 -7.390625 "/></g></g></g><g fill="#00aeef" fill-opacity="1"><g transform="translate(127.271156, 71.008601)"><g><path d="M 7.453125 -14.5625 L 11.59375 -14.75 L 11.0625 -0.140625 L 7.75 -0.015625 L 4.34375 -7.25 L 4.078125 -0.375 L 0.375 0 L 0.484375 -14.734375 L 4.484375 -14.734375 L 7.40625 -8.546875 Z M 7.453125 -14.5625 "/></g></g></g><g fill="#00aeef" fill-opacity="1"><g transform="translate(139.239633, 71.008601)"><g/></g></g><g fill="#00aeef" fill-opacity="1"><g transform="translate(144.797746, 71.008601)"><g><path d="M 9.484375 -14.078125 L 10.890625 -12.21875 L 10.578125 -1.890625 L 9.140625 -0.1875 L 0.375 0.015625 L 0.484375 -14.828125 Z M 4.28125 -11.234375 L 4.421875 -3 L 7 -3.578125 L 7.140625 -10.421875 Z M 4.28125 -11.234375 "/></g></g></g><g fill="#00aeef" fill-opacity="1"><g transform="translate(156.062199, 71.008601)"><g><path d="M 0.484375 -14.625 L 4.5 -14.75 L 4 -0.375 L 0.375 0.015625 Z M 0.484375 -14.625 "/></g></g></g><g fill="#00aeef" fill-opacity="1"><g transform="translate(160.934816, 71.008601)"><g><path d="M 5.703125 -7.796875 L 10.671875 -7.765625 L 10.75 -1.453125 L 10.0625 -0.125 L 1.703125 -0.015625 L 0.46875 -0.734375 L 0.375 -13.828125 L 0.96875 -14.703125 L 9.703125 -14.859375 L 10.84375 -13.9375 L 10.578125 -9.765625 L 7.109375 -9.765625 L 6.859375 -11.734375 L 4.265625 -11.59375 L 4.375 -3.1875 L 6.890625 -3.015625 L 6.96875 -4.78125 L 5.703125 -4.90625 Z M 5.703125 -7.796875 "/></g></g></g><g fill="#00aeef" fill-opacity="1"><g transform="translate(172.143684, 71.008601)"><g><path d="M 0.484375 -14.625 L 4.5 -14.75 L 4 -0.375 L 0.375 0.015625 Z M 0.484375 -14.625 "/></g></g></g><g fill="#00aeef" fill-opacity="1"><g transform="translate(177.016301, 71.008601)"><g><path d="M 0.375 -14.78125 L 10.78125 -14.78125 L 10.625 -11.171875 L 7.671875 -11.046875 L 7.265625 -0.3125 L 3.390625 0.0625 L 3.484375 -11.0625 L 0.390625 -11.21875 Z M 0.375 -14.78125 "/></g></g></g><g fill="#00aeef" fill-opacity="1"><g transform="translate(188.169591, 71.008601)"><g><path d="M 10.875 -13.140625 L 11.15625 -0.03125 L 7.296875 0.03125 L 7.1875 -4.578125 L 4.25 -4.390625 L 3.953125 -0.0625 L 0.375 0.015625 L 0.9375 -13.578125 L 1.671875 -14.453125 L 9.75 -14.8125 Z M 7.171875 -7.390625 L 7.078125 -11.078125 L 4.640625 -10.875 L 4.453125 -7.578125 Z M 7.171875 -7.390625 "/></g></g></g><g fill="#00aeef" fill-opacity="1"><g transform="translate(199.693418, 71.008601)"><g><path d="M 9.359375 -3.5 L 9.78125 0.015625 L 0.375 0.015625 L 0.5 -14.859375 L 4.46875 -14.625 L 4.265625 -3.5625 Z M 9.359375 -3.5 "/></g></g></g><g fill="#00aeef" fill-opacity="1"><g transform="translate(81.62049, 96.648612)"><g><path d="M 9.953125 -8.5625 L 10.859375 -6.609375 L 10.734375 -1.109375 L 9.5625 -0.078125 L 1.078125 0 L 0.375 -1.46875 L 0.71875 -5.0625 L 3.90625 -5.046875 L 4.171875 -3.390625 L 7 -3.453125 L 7.09375 -5.78125 L 1.375 -6.4375 L 0.53125 -7.375 L 0.625 -13.578125 L 1.359375 -14.453125 L 8.15625 -14.8125 L 10.546875 -14.125 L 10.71875 -10.625 L 10.03125 -10.03125 L 7.4375 -9.890625 L 6.96875 -11.390625 L 4.5 -11.1875 L 4.296875 -9.0625 Z M 9.953125 -8.5625 "/></g></g></g><g fill="#00aeef" fill-opacity="1"><g transform="translate(92.847886, 96.648612)"><g><path d="M 9.953125 -14.828125 L 10.828125 -13.875 L 10.6875 -1.359375 L 10 -0.03125 L 1.6875 0.015625 L 0.46875 -0.703125 L 0.375 -13.84375 L 0.96875 -14.765625 Z M 4.265625 -11.71875 L 4.375 -3.15625 L 6.875 -2.984375 L 6.90625 -11.484375 Z M 4.265625 -11.71875 "/></g></g></g><g fill="#00aeef" fill-opacity="1"><g transform="translate(104.038226, 96.648612)"><g><path d="M 9.359375 -3.5 L 9.78125 0.015625 L 0.375 0.015625 L 0.5 -14.859375 L 4.46875 -14.625 L 4.265625 -3.5625 Z M 9.359375 -3.5 "/></g></g></g><g fill="#00aeef" fill-opacity="1"><g transform="translate(114.191053, 96.648612)"><g><path d="M 7.6875 -14.734375 L 10.890625 -14.828125 L 10.71875 -1.390625 L 10.03125 -0.078125 L 1.8125 -0.015625 L 0.59375 -0.71875 L 0.375 -14.875 L 3.5625 -14.875 L 4.265625 -14.234375 L 4.484375 -3.546875 L 6.90625 -3.375 L 7.015625 -14.03125 Z M 7.6875 -14.734375 "/></g></g></g><g fill="#00aeef" fill-opacity="1"><g transform="translate(125.455506, 96.648612)"><g><path d="M 0.375 -14.78125 L 10.78125 -14.78125 L 10.625 -11.171875 L 7.671875 -11.046875 L 7.265625 -0.3125 L 3.390625 0.0625 L 3.484375 -11.0625 L 0.390625 -11.21875 Z M 0.375 -14.78125 "/></g></g></g><g fill="#00aeef" fill-opacity="1"><g transform="translate(136.608797, 96.648612)"><g><path d="M 0.484375 -14.625 L 4.5 -14.75 L 4 -0.375 L 0.375 0.015625 Z M 0.484375 -14.625 "/></g></g></g><g fill="#00aeef" fill-opacity="1"><g transform="translate(141.481414, 96.648612)"><g><path d="M 9.953125 -14.828125 L 10.828125 -13.875 L 10.6875 -1.359375 L 10 -0.03125 L 1.6875 0.015625 L 0.46875 -0.703125 L 0.375 -13.84375 L 0.96875 -14.765625 Z M 4.265625 -11.71875 L 4.375 -3.15625 L 6.875 -2.984375 L 6.90625 -11.484375 Z M 4.265625 -11.71875 "/></g></g></g><g fill="#00aeef" fill-opacity="1"><g transform="translate(152.671753, 96.648612)"><g><path d="M 7.453125 -14.5625 L 11.59375 -14.75 L 11.0625 -0.140625 L 7.75 -0.015625 L 4.34375 -7.25 L 4.078125 -0.375 L 0.375 0 L 0.484375 -14.734375 L 4.484375 -14.734375 L 7.40625 -8.546875 Z M 7.453125 -14.5625 "/></g></g></g><g fill="#00aeef" fill-opacity="1"><g transform="translate(164.640231, 96.648612)"><g><path d="M 9.953125 -8.5625 L 10.859375 -6.609375 L 10.734375 -1.109375 L 9.5625 -0.078125 L 1.078125 0 L 0.375 -1.46875 L 0.71875 -5.0625 L 3.90625 -5.046875 L 4.171875 -3.390625 L 7 -3.453125 L 7.09375 -5.78125 L 1.375 -6.4375 L 0.53125 -7.375 L 0.625 -13.578125 L 1.359375 -14.453125 L 8.15625 -14.8125 L 10.546875 -14.125 L 10.71875 -10.625 L 10.03125 -10.03125 L 7.4375 -9.890625 L 6.96875 -11.390625 L 4.5 -11.1875 L 4.296875 -9.0625 Z M 9.953125 -8.5625 "/></g></g></g></svg>