<?xml version="1.0" standalone="no"?>
<!DOCTYPE svg PUBLIC "-//W3C//DTD SVG 20010904//EN"
 "http://www.w3.org/TR/2001/REC-SVG-20010904/DTD/svg10.dtd">
<svg version="1.0" xmlns="http://www.w3.org/2000/svg"
 width="1080.000000pt" height="1080.000000pt" viewBox="0 0 1080.000000 1080.000000"
  preserveAspectRatio="xMidYMid meet">

<g transform="translate(0.000000,1080.000000) scale(0.100000,-0.100000)"
fill="#000000" stroke="none" >
<path style="fill:#0099ff" d="M0 5400 l0 -5400 5400 0 5400 0 0 5400 0 5400 -5400 0 -5400 0 0
-5400z m3338 2841 c99 -54 103 -61 161 -258 57 -195 82 -283 102 -355 l13 -48
2176 -2 2175 -3 57 -28 c70 -34 140 -110 162 -174 25 -73 19 -153 -28 -415
-25 -134 -88 -484 -141 -778 -53 -294 -101 -556 -106 -581 -18 -81 -130 -173
-229 -186 -37 -5 -57 -23 -26 -23 24 0 120 -103 150 -161 l29 -55 -47 -265
c-26 -145 -56 -300 -66 -344 -11 -44 -51 -257 -90 -474 -118 -655 -119 -663
-145 -707 -30 -52 -95 -111 -149 -135 -40 -18 -102 -19 -1892 -19 -1673 0
-1855 2 -1898 16 -57 20 -146 99 -169 151 -10 21 -41 167 -70 325 l-53 288
1560 2 1561 3 65 22 c60 21 124 66 159 114 20 28 103 488 97 537 -10 77 -64
152 -151 208 -29 19 -71 19 -1746 22 l-1717 2 -17 98 c-10 53 -50 276 -89 495
l-72 397 1855 0 c1021 0 1888 3 1926 6 90 7 130 19 185 56 84 57 87 65 136
321 25 127 43 248 41 268 -9 75 -75 165 -149 206 -31 17 -133 18 -2101 23
l-2068 5 -30 90 c-27 81 -74 235 -114 370 -8 28 -31 109 -52 180 l-39 130
-504 5 -503 5 -35 120 c-19 66 -45 158 -59 205 -14 47 -31 108 -38 135 -13 47
-51 189 -62 228 -5 17 42 17 988 15 l994 -3 63 -34z m618 -5214 c232 -118 231
-453 0 -575 -45 -24 -62 -27 -146 -27 -80 0 -102 4 -140 24 -61 32 -116 86
-148 146 -24 44 -27 61 -27 145 0 84 3 101 27 145 32 62 79 110 132 137 65 33
86 38 171 34 63 -2 91 -8 131 -29z m3169 1 c106 -55 166 -148 173 -268 3 -60
0 -87 -18 -135 -30 -81 -113 -163 -189 -188 -260 -83 -497 149 -415 409 24 78
98 156 179 190 81 34 195 30 270 -8z"/>
</g>
</svg>
